<?xml version="1.0" encoding="utf-8"?>
<!-- Generator: Adobe Illustrator 17.1.0, SVG Export Plug-In . SVG Version: 6.00 Build 0)  -->
<!DOCTYPE svg PUBLIC "-//W3C//DTD SVG 1.1//EN" "http://www.w3.org/Graphics/SVG/1.1/DTD/svg11.dtd">
<svg version="1.1" id="Layer_1" xmlns="http://www.w3.org/2000/svg" xmlns:xlink="http://www.w3.org/1999/xlink" x="0px" y="0px"
	 viewBox="0 0 30 38.749" enable-background="new 0 0 30 38.749" xml:space="preserve">
<path fill="#FFFFFF" d="M15.197,0c0.464,0,0.928,0,1.393,0c0.054,0.009,0.108,0.023,0.163,0.025
	c0.928,0.045,1.847,0.164,2.754,0.367c1.928,0.433,3.707,1.201,5.3,2.376c2.322,1.712,3.934,3.935,4.752,6.713
	c0.225,0.765,0.382,1.545,0.417,2.346c0.002,0.034,0.016,0.067,0.025,0.1c0,0.666,0,1.332,0,1.998
	c-0.009,0.049-0.024,0.098-0.025,0.147c-0.012,0.637-0.091,1.267-0.181,1.896c-0.186,1.287-0.494,2.542-0.946,3.762
	c-0.604,1.632-1.435,3.134-2.575,4.455c-1.008,1.168-2.193,2.11-3.585,2.782c-1.096,0.529-2.25,0.854-3.46,0.979
	c-0.796,0.083-1.59,0.104-2.383-0.035c-1.106-0.194-2.12-0.605-3.022-1.278c-0.477-0.356-0.889-0.775-1.192-1.293
	c-0.012-0.02-0.028-0.038-0.053-0.071c-0.018,0.058-0.033,0.099-0.044,0.141c-0.434,1.704-0.875,3.407-1.3,5.114
	c-0.278,1.114-0.639,2.196-1.141,3.23c-0.825,1.7-1.849,3.274-3.007,4.763c-0.064,0.082-0.142,0.154-0.214,0.23
	c-0.081,0-0.161,0-0.242,0c-0.127-0.079-0.172-0.199-0.185-0.343c-0.015-0.166-0.044-0.33-0.067-0.495
	c-0.114-0.83-0.187-1.664-0.229-2.5c-0.049-0.973-0.048-1.946,0.023-2.919c0.05-0.675,0.121-1.347,0.265-2.008
	c0.168-0.773,0.353-1.543,0.534-2.313c0.784-3.326,1.569-6.652,2.359-9.977c0.043-0.18,0.033-0.333-0.038-0.506
	c-0.339-0.828-0.517-1.695-0.583-2.586c-0.068-0.907-0.012-1.804,0.221-2.686c0.238-0.9,0.624-1.727,1.248-2.426
	C11,9.071,12.007,8.561,13.266,8.656c1.119,0.084,1.925,0.633,2.386,1.664c0.278,0.621,0.355,1.279,0.317,1.952
	c-0.03,0.54-0.127,1.071-0.247,1.597c-0.206,0.905-0.48,1.791-0.753,2.678c-0.333,1.084-0.673,2.166-0.942,3.269
	c-0.129,0.531-0.168,1.067-0.055,1.604c0.23,1.097,0.866,1.883,1.865,2.371c0.88,0.429,1.805,0.466,2.748,0.257
	c0.866-0.192,1.616-0.614,2.284-1.19c0.762-0.657,1.352-1.452,1.836-2.329c0.897-1.624,1.39-3.377,1.662-5.201
	c0.106-0.709,0.166-1.422,0.197-2.138c0.037-0.874,0.022-1.745-0.134-2.609c-0.192-1.069-0.556-2.072-1.142-2.99
	c-0.902-1.412-2.157-2.395-3.701-3.022c-1.08-0.438-2.209-0.659-3.369-0.733c-1.246-0.079-2.48-0.004-3.698,0.281
	C10.417,4.61,8.609,5.622,7.135,7.213c-2.158,2.331-3.07,5.6-2.688,8.469c0.158,1.184,0.612,2.24,1.388,3.154
	c0.094,0.111,0.182,0.229,0.262,0.352c0.111,0.171,0.154,0.36,0.119,0.564c-0.014,0.084-0.026,0.17-0.047,0.253
	c-0.152,0.601-0.303,1.202-0.46,1.802c-0.032,0.12-0.078,0.242-0.141,0.348c-0.137,0.23-0.348,0.342-0.618,0.34
	c-0.155-0.001-0.297-0.049-0.437-0.108c-1.026-0.434-1.875-1.098-2.561-1.973c-0.698-0.89-1.159-1.898-1.467-2.98
	c-0.237-0.833-0.373-1.682-0.429-2.546C0.047,14.768,0.019,14.65,0,14.531c0-0.383,0-0.767,0-1.15
	c0.019-0.109,0.041-0.217,0.055-0.326c0.057-0.435,0.091-0.873,0.17-1.304c0.297-1.629,0.888-3.15,1.753-4.56
	c1.646-2.683,3.948-4.604,6.837-5.83c1.953-0.828,4.001-1.23,6.113-1.333C15.018,0.024,15.107,0.01,15.197,0z"/>
</svg>
